<?xml version="1.0" encoding="utf-8"?>
<!-- Generator: Adobe Illustrator 26.0.3, SVG Export Plug-In . SVG Version: 6.00 Build 0)  -->
<svg version="1.1" id="Layer_1" xmlns="http://www.w3.org/2000/svg" xmlns:xlink="http://www.w3.org/1999/xlink" x="0px" y="0px"
	 viewBox="0 0 612 792" style="enable-background:new 0 0 612 792;" xml:space="preserve">
<style type="text/css">
	.st0{fill:#25408F;}
	.st1{fill:#FFFFFF;}
	.st2{font-family:'AlexBrush-Regular';}
	.st3{font-size:82px;}
	.st4{letter-spacing:2;}
	.st5{letter-spacing:3;}
	.st6{letter-spacing:1;}
	.st7{clip-path:url(#SVGID_00000140008913546803178680000012655460932173909168_);fill:#FFFFFF;}
	.st8{font-family:'Catamaran-Bold';}
	.st9{font-size:32px;}
</style>
<rect x="-22.5" y="-18.9" class="st0" width="656.6" height="835.9"/>
<text transform="matrix(1 0 0 1 115.1172 490.4315)"><tspan x="0" y="0" class="st1 st2 st3">C</tspan><tspan x="58.7" y="0" class="st1 st2 st3 st4">a</tspan><tspan x="95.4" y="0" class="st1 st2 st3 st5">n</tspan><tspan x="131.6" y="0" class="st1 st2 st3 st4">t</tspan><tspan x="158.3" y="0" class="st1 st2 st3">a </tspan><tspan x="208.4" y="0" class="st1 st2 st3 st4">G</tspan><tspan x="279.1" y="0" class="st1 st2 st3 st4">a</tspan><tspan x="315.5" y="0" class="st1 st2 st3 st6">l</tspan><tspan x="336.7" y="0" class="st1 st2 st3 st6">l</tspan><tspan x="358.2" y="0" class="st1 st2 st3">o</tspan></text>
<g>
	<defs>
		<rect id="SVGID_1_" x="-31.5" y="-25.9" width="674.6" height="843.9"/>
	</defs>
	<clipPath id="SVGID_00000016043206907169763460000008798257191500539052_">
		<use xlink:href="#SVGID_1_"  style="overflow:visible;"/>
	</clipPath>
	<path style="clip-path:url(#SVGID_00000016043206907169763460000008798257191500539052_);fill:#FFFFFF;" d="M245.6,177.1
		c0.1,1.6-0.9,3-2.2,3c-1.2,0.1-2.2-1.1-2.3-2.7c-0.1-1.6,0.9-3,2.2-3C244.5,174.3,245.6,175.6,245.6,177.1 M222.9,185.8
		c-0.3,0-0.5,0.2-0.9-0.1c1.7-3.3,4.2-5.3,6.8-7c4.4-2.7,6.8-1.6,8.8,4c0.3,0.8,0.2,1.1-0.4,1.6c-1.5,1.1-2.8,1.7-4.7,1.2
		C229.3,184.4,226.1,185.3,222.9,185.8 M228.7,219.6c-2.7-2.9-4.2-7-4.2-12.1c0-7,3-12.2,6.9-16.8c1.7-2,3.6-3.5,5.6-5
		c1-0.7,1.4-0.4,1.9,0.7c1,2.7,2,5.4,3.4,7.9c0.9,1.7,1.9,3.5,3.2,4.7c0.5,0.5,0.7,1.1,0.6,1.9c-0.5,6.9-2.6,13.1-6.4,18.1
		C236.4,223.2,232.2,223.3,228.7,219.6z M224.5,169.4c-0.3-1.6,0.2-2.9,1.5-3.4c1.5-0.6,1.6-0.8,0.7-2.5c-0.8-1.6-1.2-3.4-0.9-5.3
		c0.1-0.7,0.1-1.6,0.8-1.7c0.7-0.1,0.7,0.9,0.9,1.5c0.3,1.7,1.1,2.9,2.3,3.9c0.4,0.3,1,0.7,1.4,0.3c0.5-0.5,0-1.1-0.2-1.6
		c-1.3-3.2-2-6.5-1-10.1c0-0.1,0-0.2,0.1-0.4c0.3-0.6,0.3-1.7,1.1-1.7c0.9,0,0.9,1.1,1.1,1.9c0.3,1.6,0.7,3.2,1.3,4.7
		c0.3,0.7,0.7,1.4,1.2,2.1c0.5,0.7,0.9,0.7,1.1-0.5c0.5-3.1,1.5-5.9,3.2-8.4c1-1.5,2.3-2.7,3.8-3.5c0.5-0.2,0.9-0.4,1.4,0.2
		c0.3,0.5,0.1,1-0.1,1.5c-0.7,1.8-1.3,3.7-1.5,5.7c-0.3,2.5,0.4,3.1,2.2,2.1c4.5-2.4,8.5-5.5,11.2-10.8c0.6-1.1,1.4-1,2,0.4
		c1,2.5,0.9,5.1,0.2,7.6c-0.9,3.5-2.8,5.7-5.6,6.8c4.5,0.7,8.5-1.1,12.2-3.9c2-1.5,3.9-3.3,5.7-5.3c1-1.1,1.5-1,1.9,0.7
		c0.9,3.9-0.7,8.7-3.7,11c-0.3,0.3-0.7,0.5-1.4,1c1.2,0.4,2.1,0.8,3,1.1c0.9,0.3,1.2,1,1.1,2c-0.1,2.5-1.3,4.2-3,5.3
		c-3,1.9-6.1,1.7-9.2,0.9c-3.2-0.9-6.3-2.5-9.3-4.2c-2.6-1.4-5.3-1.9-8.1-1.5c-4.1,0.6-6.8,3.6-7.6,8.6c-0.2,1.1-0.5,1.4-1.4,1.2
		c-2.6-0.5-5.1-1.2-7-3.5C225.1,171.1,224.7,170.4,224.5,169.4 M243.4,181.7c-1.9,0-3.6-2.1-3.6-4.4c0-2.4,1.7-4.4,3.6-4.4
		c2,0,3.6,2,3.6,4.4C246.9,179.8,245.3,181.7,243.4,181.7 M264.7,280.8c6.7-8.9,8.4-19.5,6.5-31.2c-0.2-1.4-0.1-2.1,0.9-2.9
		c5.8-4.3,9.2-13.8,7.6-21.5c-1.1-5.4-3.8-9.6-7.1-13.2l-2.2-2.2c6.3,0.9,11.7,4,16.7,9.2c-0.7-2.1-1.1-3.8-1.6-5.4
		c-2.7-9.7-7-18-13.3-24.8c-4-4.4-8-8.7-11.1-14.2c-0.3-0.6-0.8-0.9-1.3-1c-3.1-0.7-6-2.2-9-3.8c-1.9-1-3.8-1.8-5.8-2.1
		c-5-0.7-8.6,1.6-10.5,6.5c-0.4,1.1-0.5,2,0.6,2.6c0.8,0.4,1.3,1.2,1.8,2.1c1.3,2.3,2.3,4.9,3.3,7.4c1.3,3.4,2.9,6.6,5.1,9.2
		c2.9,3.5,6.3,3.4,8.8-0.5c2.5-3.9,3.4-8.4,2.7-13.3c-0.2-1.1-0.7-2.1-1.1-3.4c1.5,1.5,2.3,2.9,2.5,5.1c0.4,3.9,0.1,7.6-1.4,11.1
		c-2,4.8-4.7,7.7-9.6,5.5c-0.1,5.9-1.5,11.2-3.9,16c-2.2,4.6-4.9,8.5-9.6,9c-0.7,0.1-0.7,0.8-0.8,1.3c-2.4,11.5-3.7,23.2-2.6,35.1
		c0.7,7,2.5,13.4,6.4,18.8C244.7,290.8,256.8,291.2,264.7,280.8 M381,170c11.3-10.8,23.6-12.4,36.8-7
		C405.1,161.7,392.8,163.6,381,170 M471.2,215.5c-4-17.5-12.7-30.8-25-40.4c-0.6-0.5-1.2-1-1.7-1.8c-1.5-2.7-3.2-5.3-5-7.7
		c-8.7-11.6-19.2-18.9-32-20.5c-13.8-1.8-26,3.5-36.4,14.5c-9.6,10.1-15.6,23-18.9,38c-1.4,6.5-2.2,13.2-2.2,19.9c0,6-0.1,12-1,17.9
		c-1,6.2-2.5,12.1-6.4,16.4c-5.1,5.8-11.3,6.5-17.8,5.4c-6.7-1.1-12.6-5-18-9.9c-4.7-4.2-8.4-9.7-12-15.2
		c-4.7-7.1-9.6-13.8-16.3-18.2c-1.3-0.8-2.6-1.7-4.4-2.2c0.5,0.4,0.6,0.6,0.7,0.7c10.6,9,10.5,27.5-0.3,36.3
		c-0.7,0.6-0.9,1.1-0.6,2.1c0.9,3.5,1.3,7,1.2,10.7c-0.2,5.2-1.4,10.1-2.6,15c-1.9,7.9-1.2,15.4,2.3,22.4
		c8,15.8,26.5,22.4,40.2,14.4c2.4-1.4,4.5-3.2,6.6-4.9c-13.3,14.9-27.6,14.4-42.4,3.8c0,0,0,0.1,0.1,0.2c0.1,0.1,0.2,0.3,0.3,0.4
		c11.3,13.2,24.7,17.6,39.7,12.9c11.1-3.5,19-11.9,21.8-26.4c0.2-0.9,0.6-1.2,1.1-1.6c2.1-1.5,3.9-3.4,5.4-5.7
		c5.9-8.4,5.5-19.7-1-27.4c-0.2-0.2-0.5-0.4-0.3-0.9c3.9,3.4,6.6,7.7,7,13.8c0.1,0.6,0.1,1.1,0.5,1.5c-0.3,1.8-0.5,3.6-0.9,5.3
		c-1.5,6.4-5,11-9.4,14.6c-0.6,0.5-1.1,0.9-1.3,2c-1.7,11.1-7.1,18.7-14.9,24c-8.8,6-18.3,7.4-28.2,5.3c-10-2.1-18.6-7.4-25-17.4
		c-4.9-7.5-6.9-16.1-5.6-25.8c0.1-1,0.3-1.9,0.6-2.8c0.2-0.9,0.4-1.7,0.6-2.6c-3.8,5.1-8,8.7-13.5,9.9c-5.5,1.1-10.5-0.3-15.3-4.3
		c0.1,0.4,0,0.6,0.1,0.7l2.6,5.9c5.1,11.1,12,20.1,20.4,27.5c5.8,5.2,11.8,10.2,17.5,15.6c0.3,0.3,0.7,0.7,0.8,0.9
		c0.3,0.2,0.5,0.4,0.7,0.6l0.4,0.4c4.2,4.2,6.2,10.2,6.7,16.6c0.4,5.3-1.1,11.1-3.1,16.2c-0.4,1.1-1,1.5-2,1.1
		c-2.1-0.9-4.3-1.7-6.5-2.5c-2.2-0.8-4.1,0-5.8,1.7c2.6,2.2,5.8,1.7,8.8,3.7c-3.3,0.6-6.1-0.1-8.9,0c-2.6,0-4.6,1.2-6,4.6
		c5.1-1.2,9.7,0,14.6,0.9c-1.4,0.6-2.6,1-3.7,1.5c-1.3,0.6-2.3,1.6-2.9,3.3c-0.3,0.7-0.8,1.5-0.4,2.1c0.5,0.6,1.2,0.1,1.8-0.2
		c2.6-1.6,5.4-2.4,8.2-3.3c1.8-0.6,3.8-0.7,5.2-2.1c1-1.1,2.1-1.6,3.3-2l9.4-2.7l-5.5-1.9l-0.5-0.1c-2.1-0.4-3-3.1-2-5.4
		c0.3-0.7,0.5-0.5,0.9-0.2c0.7,0.6,1.5,1,2.6,0.6c-3.3-4.2-3-10.9,0.7-14.8c0.6,3.5,3.6,4.8,4.5,8c0.3,1.1,0.9,2.1,0.7,3.4
		c-0.2,3.2-0.5,6.3-0.7,9.7c-0.1,2.2-0.4,3.8-0.6,4.7c0,0.3-0.1,0.6-0.2,0.9c0,0,0,0,0,0c-0.5,1.2-1.7,2.1-2.7,1.8l-4-1.6
		c-2.7-0.9-5.1-0.3-7.5,1.5c2.6,3.8,6.4,1.2,9.2,3.3c-0.6,0.8-1.4,0.8-2.1,0.9c-2.5,0.3-5.1,0.6-7.6,0.9c-1.6,0.2-3.3,0.7-4.4,2.3
		c-0.6,0.9-1.6,2.1-1.2,3.1c0.5,1,1.7,0.1,2.5-0.1c3.8-1.4,7.7-1.3,11.9-0.9c-2.3,1.7-4.8,2.3-5.9,5.2c-0.3,0.7-0.9,1.5-0.5,2.1
		c0.5,0.9,1.3,0.2,1.9-0.1c3.6-1.7,7-3.6,10.6-5.3c1.9-0.9,3.8-1.9,5.1-4c0.3-0.4,0.5-0.7,1.1-0.6c4.5,0.9,8.4-2.3,13-1.7
		c-1.2-2.1-2.4-2.9-4.2-3.2c-1.5-0.2-3,0-4.5,0.2c-2.9,0.4-3.9-0.7-3.8-4.4c0-0.8,0.1-1.6,0.2-2.6c1.2,0.6,2.1,1.6,3.6,0.7
		c-3.1-1.9-3.6-4.9-2.9-8.4c0.5-2.2-0.1-4.7,1.5-6.6c2.6-3,3.4-7.5,5.7-10.8c0.7-0.9,0.3-2.5,1.5-3.3c1.2-0.8,2.1-2,2.7-3.6
		c2.6-1.1,5.3-2.6,8-4.7c8.5-8.3,16.4-17.5,23.7-27.5c1.4-2,2.7-4.1,4.2-6.2c0.1,1.1,0.3,2.1,0.3,3.2c-0.1,2.9,0,5.9,0,8.8
		c0,0.4-0.1,0.8,0.2,1c0.3,0.1,0.5-0.3,0.7-0.5c2-2.1,3.1-4.9,3.9-7.9c2.6-10.4,0.6-19.8-4.2-28.6c-0.3-0.6-0.9-1.1-1-2
		c0.5,0.2,0.9,0.8,1.2,1.3c5.9,7.6,8,17.2,9.3,27.3c0.5,3.8,0.6,7.6,0.9,11.9c1.9-3.1,2.9-6.2,3.4-9.5c0.5-3.3,0.7-6.7,0.6-10
		c1.3,7.5,0.9,15.2,1.2,22.9c6.6-9.4,7.6-20.4,6.2-32c-1.5-11.7-6-21.3-13.1-29.3c0.3,0,0.5,0.1,0.7,0.2c0.5,0.4,1.1,0.9,1.6,1.3
		c6.6,6,10.5,14.3,12.4,24.1c1.6,7.6,1.7,15.5,1.5,23.3c0,0.9-0.2,1.8,0.4,2.9c7.6-11.3,8.2-23.8,5.3-37.2c-0.7-3.5-2-6.8-3.5-9.9
		c-1.5-3.2-3.3-6.1-5.4-8.7c-2.1-2.6-4.3-4.9-6.8-6.7c-2.6-1.9-5.3-3.3-8.2-4.2c-2.8-0.9-5.6-1.2-8.4-1.3c6.6-0.6,12.7,1.1,18.3,5.5
		c10.9,8.6,16.3,21.1,17,37c0.1,3.4,1.5,6.5,2.7,9.6c4.4-12.8,1.1-24.2-4.4-35.1c4.9,6,8.1,13.5,11.6,21.2c1.3-4.7,1.2-8.7,0.5-12.7
		c-1.6-9.5-5.5-17.3-11.5-23.4c-9.6-9.9-20.4-14-32.8-10.3c-1.1,0.4-2.3,0.9-3.4,1.4c-1,0.5-2,1.1-3.1,1.6c4.5-3.8,9.6-5.2,15-5.5
		c19.5-1.2,34.7,15.9,38,34c0.3,1.4,0.9,2.4,1.9,3.4c1-4.2,0.5-10.3-1.2-15.3c-4.4-13-12.3-21.3-23-25.8c-4.1-1.7-8.4-2.5-12.7-2.4
		c4.2-0.8,8.3-0.4,12.3,0.9c8.3,2.7,15.2,7.9,20.1,17c0.6,1.1,1.3,1.9,2.3,2.6c9.1,6.7,15.9,16.1,21.4,27.3
		c1.7,3.5,3.2,7.2,4.7,10.8c-1.5-17.7-4.6-34.5-17.1-46.1c0.3,0,0.5,0,0.7,0.1c6.5,2.3,12.3,6.4,17.6,11.5c3.1,2.9,6.2,5.8,9.8,7.9
		c0.5,0.3,1.1,0.8,1.5,0.2c0.3-0.5-0.1-1.1-0.4-1.6c-4.5-9.3-10.4-16.8-17.9-22.3c-14.4-10.5-30-14.7-46.6-13.3
		c-4.3,0.4-8.5,1.1-13.1,2.2c1.2-1.1,2.4-1.2,3.4-1.6c10.7-4,21.6-4.6,32.5-1.7c8.7,2.3,16.7,6.7,24.2,12.4
		c9.8,7.6,18.1,17.1,25.5,28l3.7,5.7c0.1-0.4,0.1-0.6,0-0.8c-2.6-6.6-5.4-12.9-8.6-18.9c-5.5-10.3-11.7-19.7-19.6-27.3
		c-7.8-7.4-16.3-12.3-26.2-13.4c-1.8-0.2-3.7-0.1-5.8-0.4c9.3-5.9,18.2-6.3,27.1,0.1c5.9,4.2,10.5,10.3,15.6,15.7
		c1.3,1.4,2.5,2.8,4.2,3.8c-4.6-12.2-10-23.7-18.5-32.4c0.3,0.1,0.6,0.2,0.8,0.4c6.6,5.6,11.7,12.9,16.2,21c3,5.4,5.4,11.2,7.8,17
		c0.3,0.8,0.7,1.7,1.3,2.4c0.1-0.3,0.2-0.5,0.2-0.6c0-0.6,0.1-1.1,0.1-1.6c-0.1-7.2-1.3-14-3.3-20.7c-2.8-9.4-7-17.7-13.1-24.4
		c-8-8.8-17.7-11.2-27.9-11.1c-10,0.1-19.1,4-27.6,10.4c-2.6,1.9-5,4.1-7.4,6.4c0.1-0.4,0-0.5,0.1-0.5c2.1-2.2,4.2-4.4,6.4-6.4
		c11.6-10.3,24.2-16,38.7-14.4c9.4,1.1,18.5,4.1,26.8,9.7c1.2,0.8,2,1.8,2.7,3.3c5.8,12.2,8.4,25.6,8.8,39.7c0.1,4,0,8,0.1,12
		c3.3-14.4,3.5-28.9,0.4-43.8c8.6,9.6,18.8,30.8,15.6,62.3c0.2-0.3,0.3-0.5,0.4-0.7C473.7,244.9,474.5,230.2,471.2,215.5z"/>
	<path style="clip-path:url(#SVGID_00000016043206907169763460000008798257191500539052_);fill:#FFFFFF;" d="M205.5,185
		c1.1-0.2,2-1,2-1.8l0-9.1c0,0,2.3-0.1,4.5,2.9c0,0,0-1.6-1.7-2.7c-3.4-2-3.4-2.5-3.4-2.5c-0.6,0.1-0.7,0.5-0.7,0.5v9.6
		c-0.5-0.1-1.1-0.2-1.6,0c-1.3,0.3-2.2,1.2-1.9,2.1C202.8,184.8,204.2,185.3,205.5,185z M182.8,178.9c1.6-0.4,2.8-1.4,2.8-2.5l0-13
		c0,0,3.3-0.2,6.5,4.2c0,0,0-2.3-2.5-3.9c-4.9-2.9-4.8-3.6-4.8-3.6c-0.9,0.1-1,0.7-1,0.7v13.7c-0.7-0.2-1.5-0.3-2.4-0.1
		c-1.9,0.4-3.1,1.8-2.8,3C178.9,178.5,180.9,179.3,182.8,178.9z M154.9,182.7l0.1-31.9c0,0,7.8-0.4,15.5,10.3c0,0,0-5.5-5.9-9.5
		c-11.5-7.1-11.5-8.8-11.5-8.8c-2.2,0.2-2.4,1.7-2.4,1.7V178c-1.6-0.5-3.6-0.6-5.6-0.1c-4.5,1-7.4,4.3-6.5,7.3
		c0.5,2.8,5.2,4.7,9.6,3.7C152.1,188,154.9,185.4,154.9,182.7 M158.3,187l29.8-4.5v37.9c0,3.1-2.5,5.7-6.4,6.6
		c-4.3,1-8.4-0.7-9.2-3.8c-0.8-3.1,2-6.4,6.2-7.4c1.9-0.4,3.8-0.3,5.4,0.2v-22.9l-21.8,3.7l-0.1,28.4c0,2.7-2.6,5.4-6.3,6.2
		c-4.2,1-8.6-0.9-9.1-3.7c-0.8-3.1,1.9-6.3,6.2-7.3c1.9-0.4,3.8-0.3,5.3,0.1V187z"/>
</g>
<text transform="matrix(1 0 0 1 211.3194 624.5408)" class="st1 st8 st9">Hola a Todos! </text>
<text transform="matrix(1 0 0 1 112.2158 662.9412)" class="st1 st8 st9">Bienvenidos al Restaurante! </text>
</svg>
